{"title":"Sex.And.The.City.2.2010.DVDRiP.XviD.OTIONAL-MULTISUB-Zen_Bud ","uid":5928476,"size":1634307554,"categoryP":"video","categoryS":"movies","magnet":"?xt=urn:btih:a756a050f64cf01098cfd67bb051e475214644e7&amp;dn=Sex.And.The.City.2.2010.DVDRiP.XviD.OTIONAL-MULTISUB-Zen_Bud+&amp;tr=udp%3A%2F%2Ftracker.openbittorrent.com%3A80&amp;tr=udp%3A%2F%2Fopen.demonii.com%3A1337&amp;tr=udp%3A%2F%2Ftracker.coppersurfer.tk%3A6969&amp;tr=udp%3A%2F%2Fexodus.desync.com%3A6969","seeders":10,"leechers":0,"uploader":"Zen_Bud","files":-1,"time":1288685746,"description":"***** Sex.And.The.City.2.2010.DVDRiP.XviD.OPTIONAL-MULTISUB-Zen_Bud ****\n\nFormat                           : AVI\nFile size                        : 1.48 GiB\nDuration                         : 2h 26mn\nOverall bit rate                 : 1 443 Kbps\n\nVideo\n\nFormat                           : MPEG-4 Visual\nCodec ID/Hint                    : XviD\nDuration                         : 2h 26mn\nBit rate                         : 1 302 Kbps\nWidth                            : 720 pixels\nHeight                           : 480 pixels\nDisplay aspect ratio             : 16:9\nStream size                      : 1.33 GiB (90%)\nWriting library                  : XviD 1.1.2 (UTC 2006-11-01)\n\nAudio\n\nFormat                           : MPEG Audio\nCodec ID/Hint                    : MP3\nDuration                         : 2h 26mn\nBit rate                         : 128 Kbps\nChannel(s)                       : 2 channels\nSampling rate                    : 48.0 KHz\nStream size                      : 134 MiB (9%)\nWriting library                  : LAME3.98\nLanguage                         : English\n\nText #1\nLanguage                         : English\n\nText #2\nLanguage                         : Spanish\n\nText #3\nLanguage                         : Chinese\n\nText #4\nLanguage                         : Danish\n\nText #5\nLanguage                         : Dutch\n\nText #6\nLanguage                         : French\n\nText #7\nLanguage                         : Portuguese\n\nText #8\nLanguage                         : Croatian\n\nText #9\nLanguage                         : Swedish\n\n\nWhile wrestling with the pressures of life, love, and work in Manhattan, Carrie, Miranda, and Charlotte join Samantha for a trip to Abu Dhabi (United Arab Emirates), where Samantha's ex is filming a new movie. ","torrent":{"xt":"urn:btih:a756a050f64cf01098cfd67bb051e475214644e7","amp;dn":"Sex.And.The.City.2.2010.DVDRiP.XviD.OTIONAL-MULTISUB-Zen_Bud+","amp;tr":["udp%3A%2F%2Ftracker.openbittorrent.com%3A80","udp%3A%2F%2Fopen.demonii.com%3A1337","udp%3A%2F%2Ftracker.coppersurfer.tk%3A6969","udp%3A%2F%2Fexodus.desync.com%3A6969"],"infoHash":"a756a050f64cf01098cfd67bb051e475214644e7","infoHashBuffer":{"type":"Buffer","data":[167,86,160,80,246,76,240,16,152,207,214,123,176,81,228,117,33,70,68,231]},"announce":[],"urlList":[]}}